<svg width="160" height="40" viewBox="0 0 160 40" fill="none" xmlns="http://www.w3.org/2000/svg">
  <!-- Geometric Logo Mark -->
  <g id="logo-mark">
    <!-- Outer hexagon -->
    <path d="M20 4L32 11L32 25L20 32L8 25L8 11L20 4Z" stroke="#3b5998" stroke-width="2" fill="none"/>
    <!-- Inner elements -->
    <circle cx="20" cy="18" r="3" fill="#3b5998"/>
    <path d="M20 21L20 28" stroke="#3b5998" stroke-width="2" stroke-linecap="round"/>
    <path d="M14 25L20 28L26 25" stroke="#3b5998" stroke-width="2" stroke-linecap="round" stroke-linejoin="round"/>
  </g>
  
  <!-- Wordmark: TECLARIS -->
  <g id="wordmark" fill="#2c3e50">
    <!-- T -->
    <path d="M45 12H52V14H50V28H48V14H45V12Z"/>
    <!-- E -->
    <path d="M55 12H63V14H57V19H62V21H57V26H63V28H55V12Z"/>
    <!-- C -->
    <path d="M67 12C70.31 12 73 14.69 73 18V22C73 25.31 70.31 28 67 28C63.69 28 61 25.31 61 22V18C61 14.69 63.69 12 67 12ZM67 14C64.79 14 63 15.79 63 18V22C63 24.21 64.79 26 67 26C69.21 26 71 24.21 71 22V18C71 15.79 69.21 14 67 14Z"/>
    <!-- L -->
    <path d="M76 12H78V26H84V28H76V12Z"/>
    <!-- A -->
    <path d="M87 12H89L95 28H93L91.5 24H84.5L83 28H81L87 12ZM85.5 22H90.5L88 14.5L85.5 22Z"/>
    <!-- R -->
    <path d="M98 12H104C106.21 12 108 13.79 108 16V18C108 19.66 107.07 21.11 105.69 21.75L108 28H106L103.85 22H100V28H98V12ZM100 14V20H104C105.1 20 106 19.1 106 18V16C106 14.9 105.1 14 104 14H100Z"/>
    <!-- I -->
    <path d="M111 12H113V28H111V12Z"/>
    <!-- S -->
    <path d="M118 12C120.76 12 123 14.24 123 17V17.5H121V17C121 15.34 119.66 14 118 14C116.34 14 115 15.34 115 17C115 18.66 116.34 20 118 20H120C122.76 20 125 22.24 125 25C125 27.76 122.76 30 120 30C117.24 30 115 27.76 115 25V24.5H117V25C117 26.66 118.34 28 120 28C121.66 28 123 26.66 123 25C123 23.34 121.66 22 120 22H118C115.24 22 113 19.76 113 17C113 14.24 115.24 12 118 12Z"/>
  </g>
</svg>
